<svg height="56" width="56" id="svg14" xml:space="preserve" y="0" x="0" version="1.1" xmlns="http://www.w3.org/2000/svg"><rect style="fill:#000;fill-opacity:1;stroke-width:0" id="rect1296" width="49.772" height="51.351" x="3.114" y="2.324" ry="2.738"/><path d="M78.65 6.516c-.084.006-.332.023-.549.04a18.003 18.003 0 0 0-9.01 3.28c-3.807 2.7-6.434 6.758-7.248 11.193-.203 1.098-.268 1.85-.27 3.04 0 1.02.022 1.375.143 2.282.425 3.167 1.788 6.22 3.903 8.746 2.948 3.514 7.115 5.77 11.595 6.276 1.363.152 3.038.124 4.407-.073 7.265-1.05 13.229-6.69 14.611-13.812.194-1.002.282-1.968.279-3.108a15.1 15.1 0 0 0-.293-3.084c-.56-2.804-1.777-5.319-3.675-7.602-.391-.473-1.61-1.69-2.08-2.081-1.932-1.608-4.016-2.72-6.35-3.396a18.029 18.029 0 0 0-3.168-.597c-.563-.056-2.492-.048-3.07.014-2.156.234-4 .769-5.87 1.698a16.726 16.726 0 0 0-4.494 3.235c-1.89 1.887-3.233 4.044-4.052 6.505a15.115 15.115 0 0 0-.81 4.998 14.5 14.5 0 0 0 .25 2.872c.6 3.3 2.328 6.468 4.832 8.85 3.826 3.644 9.013 5.26 14.107 4.398a16.51 16.51 0 0 0 7.456-3.33 17.137 17.137 0 0 0 3.187-3.343c1.611-2.258 2.577-4.767 2.881-7.49.065-.566.09-2.154.042-2.712a15.289 15.289 0 0 0-.71-3.604c-1.204-3.697-3.742-6.84-7.16-8.872a22.668 22.668 0 0 0-1.788-.913 15.735 15.735 0 0 0-9.77-.904c-6.314 1.459-11.19 6.674-12.109 12.939-.115.791-.149 1.382-.132 2.376.014.907.042 1.298.146 1.971a15.202 15.202 0 0 0 4.348 8.465c.625.622 1.022.974 1.608 1.422 3.16 2.407 7.115 3.511 11.01 3.063 4.488-.512 8.568-3.027 11.08-6.825 1.343-2.033 2.128-4.24 2.385-6.702.048-.473.048-2.151 0-2.618-.195-1.834-.662-3.475-1.442-5.046a21.465 21.465 0 0 0-.298-.578 15.895 15.895 0 0 0-1.648-2.401 19.598 19.598 0 0 0-1.661-1.693c-3.3-2.866-7.532-4.15-11.767-3.57-5.246.718-9.8 4.283-11.736 9.19a14.27 14.27 0 0 0-.938 4.157c-.062.816-.006 2.14.132 3.01.609 3.902 2.903 7.453 6.263 9.692a14.7 14.7 0 0 0 2.914 1.498c1.732.656 3.43.949 5.294.91.751-.018 1.033-.037 1.633-.122a14.251 14.251 0 0 0 6.927-2.979 15.08 15.08 0 0 0 2.311-2.312c2.667-3.336 3.622-7.698 2.574-11.744-1.352-5.212-5.767-9.267-11.077-10.18a14.112 14.112 0 0 0-4.1-.078c-4.908.667-9.098 3.933-10.923 8.515a12.795 12.795 0 0 0-.774 6.476c.29 2.095 1.174 4.232 2.458 5.941a13.754 13.754 0 0 0 2.819 2.813c1.464 1.087 3.21 1.898 4.93 2.287 1.05.236 1.833.32 2.982.32 1.411 0 2.622-.188 3.96-.622a13.307 13.307 0 0 0 6.963-5.282c2.072-3.123 2.644-6.904 1.577-10.441a13.09 13.09 0 0 0-1.805-3.655 13.187 13.187 0 0 0-3.419-3.292 12.6 12.6 0 0 0-5.403-2.018c-1.02-.136-2.402-.119-3.438.036-3.99.603-7.555 3.176-9.368 6.76-.947 1.87-1.4 3.949-1.29 5.92.09 1.664.456 3.105 1.157 4.558.842 1.749 2.045 3.227 3.627 4.455a12.32 12.32 0 0 0 4.792 2.247c.935.205 1.589.276 2.577.276 1.42 0 2.486-.172 3.784-.6a12.202 12.202 0 0 0 5.916-4.269 11.589 11.589 0 0 0 2.242-5.519c.059-.464.084-1.785.042-2.27a11.413 11.413 0 0 0-1.853-5.318 12.548 12.548 0 0 0-2.365-2.63c-2.318-1.89-5.192-2.844-8.03-2.667-2.904.183-5.508 1.36-7.55 3.413a11.026 11.026 0 0 0-2.196 3.103 10.702 10.702 0 0 0-1.042 3.765c-.04.467-.034 1.498.014 1.962.084.837.234 1.53.49 2.312 1.267 3.827 4.615 6.75 8.563 7.479 1.154.214 2.413.242 3.52.084a11.076 11.076 0 0 0 7.61-4.775 10.387 10.387 0 0 0 1.769-5.077c.037-.465.02-1.445-.031-1.873a10.6 10.6 0 0 0-2.267-5.364c-1.602-1.97-3.79-3.3-6.223-3.784a9 9 0 0 0-1.802-.192 9.599 9.599 0 0 0-1.943.133c-4.485.76-8.025 4.392-8.588 8.813a12.3 12.3 0 0 0-.045 1.96c.163 1.977.912 3.835 2.19 5.432.3.374 1.045 1.129 1.423 1.439 1.58 1.303 3.511 2.109 5.493 2.289.44.042 1.417.042 1.822.003a9.967 9.967 0 0 0 7.333-4.407 9.354 9.354 0 0 0 1.526-4.082c.07-.516.067-1.693 0-2.197a9.132 9.132 0 0 0-.848-2.877 9.37 9.37 0 0 0-1.872-2.63 9.446 9.446 0 0 0-4.514-2.557 9.449 9.449 0 0 0-4.23-.045 9.483 9.483 0 0 0-6.003 4.336 8.75 8.75 0 0 0-1.061 6.429c.67 2.99 2.928 5.502 5.865 6.52 2.25.784 4.686.62 6.823-.45 2.497-1.25 4.257-3.595 4.71-6.268.448-2.655-.436-5.338-2.401-7.281-1.098-1.081-2.515-1.875-3.973-2.219a8.24 8.24 0 0 0-5.804.738 9.889 9.889 0 0 0-1.225.797c-.36.273-1.095 1.002-1.39 1.377-1.563 1.985-2.101 4.429-1.493 6.805.52 2.033 1.91 3.833 3.782 4.9a7.74 7.74 0 0 0 10.055-2.084c.732-.971 1.177-2.002 1.396-3.238.085-.476.107-1.515.043-2.013a7.37 7.37 0 0 0-1.11-3.041 7.901 7.901 0 0 0-2.328-2.295 9.473 9.473 0 0 0-1.38-.676 7.175 7.175 0 0 0-6.533.825 6.413 6.413 0 0 0-1.042.864 6.951 6.951 0 0 0-2.013 4.097c-.042.352-.034 1.211.014 1.597.234 1.8 1.225 3.469 2.72 4.584a6.834 6.834 0 0 0 3.317 1.312c.423.048 1.45.017 1.833-.053 1.422-.268 2.602-.884 3.604-1.893a6.169 6.169 0 0 0 1.023-1.306 6.16 6.16 0 0 0 .4-5.5c-.873-2.083-2.8-3.564-5.01-3.854-.476-.062-1.425-.042-1.864.042a6.124 6.124 0 0 0-3.328 1.788c-2.075 2.143-2.233 5.325-.38 7.62.222.276.695.732.988.954.749.566 1.6.938 2.529 1.104.41.073 1.261.087 1.658.028 2.16-.32 3.908-1.774 4.559-3.793.732-2.278-.254-4.781-2.368-6.028a5.063 5.063 0 0 0-4.387-.37c-1.52.592-2.647 1.842-3.055 3.391a4.928 4.928 0 0 0-.06 1.988c.378 1.87 1.808 3.308 3.7 3.717.243.05.38.062.865.062.501.003.617-.006.884-.065 2.447-.52 4.018-2.85 3.478-5.156a4.185 4.185 0 0 0-3.529-3.182c-.388-.05-.96-.02-1.343.068a3.92 3.92 0 0 0-1.985 1.12c-.31.322-.484.567-.676.941a3.454 3.454 0 0 0-.388 1.63c0 .606.11 1.065.38 1.603.177.352.343.588.63.887.513.535 1.087.856 1.873 1.05.104.025.335.037.704.037.501-.004.572-.01.82-.076 1.14-.31 2.018-1.113 2.379-2.171.222-.65.205-1.473-.042-2.09a3.269 3.269 0 0 0-1.158-1.45c-1.039-.704-2.424-.681-3.41.062-1.309.986-1.48 2.796-.377 3.922.346.352.715.572 1.169.696.337.09.875.09 1.19 0 .78-.222 1.372-.766 1.614-1.484.09-.27.121-.715.07-1.016-.152-.873-.932-1.577-1.807-1.636a1.782 1.782 0 0 0-1.842 1.267c-.065.228-.062.605.011.836.203.64.73 1.042 1.366 1.042.36 0 .606-.096.867-.335.56-.513.46-1.4-.197-1.701-.171-.079-.507-.084-.653-.009-.34.175-.49.538-.34.828.14.273.517.335.672.107.085-.124.08-.15-.042-.169-.189-.034-.2-.042-.191-.13a.279.279 0 0 1 .059-.143c.079-.087.293-.062.41.048.243.228.212.569-.075.822-.42.369-1.073.197-1.343-.355-.085-.169-.093-.21-.093-.442 0-.225.011-.273.087-.436.225-.468.65-.732 1.177-.732.696 0 1.281.487 1.442 1.202.174.791-.344 1.625-1.2 1.929-.157.053-.24.065-.577.065-.355 0-.414-.01-.608-.076a2.084 2.084 0 0 1-1.366-1.566c-.214-1.112.535-2.227 1.71-2.545.194-.051.303-.062.616-.062.453.003.696.059 1.084.25 1.259.614 1.8 2.157 1.2 3.413a2.728 2.728 0 0 1-.564.8 2.924 2.924 0 0 1-2.469.839c-1.352-.186-2.461-1.293-2.658-2.642a3.736 3.736 0 0 1 .053-1.165 3.433 3.433 0 0 1 2.473-2.456c.99-.259 1.98-.081 2.88.518.293.195.752.648.95.935.312.456.531.994.616 1.504.053.335.04.985-.028 1.295a3.825 3.825 0 0 1-.969 1.822 4.035 4.035 0 0 1-1.712 1.09c-.774.25-1.71.245-2.49-.023a4.266 4.266 0 0 1-2.8-3.128c-.063-.285-.088-1.079-.046-1.386a4.385 4.385 0 0 1 .811-1.962c.087-.118.298-.355.47-.524a4.52 4.52 0 0 1 2.228-1.213c.312-.074.382-.08.943-.08.597-.003.67.007 1.123.113.417.102.994.35 1.377.592.66.42 1.29 1.103 1.678 1.813a4.97 4.97 0 0 1 .499 1.568c.048.372.02 1.183-.056 1.524a5.001 5.001 0 0 1-1.127 2.219c-.72.827-1.765 1.424-2.88 1.65-.276.056-.403.064-.938.064-.673-.003-.895-.03-1.413-.18a5.07 5.07 0 0 1-2.217-1.298c-2.142-2.078-2.148-5.356-.014-7.487.848-.85 1.912-1.394 3.134-1.6.352-.059 1.304-.067 1.622-.013 1.065.183 1.89.526 2.67 1.115 1.585 1.2 2.466 3.094 2.314 4.99a5.812 5.812 0 0 1-1.653 3.643c-.949.985-2.1 1.594-3.463 1.833-.293.053-.47.065-.952.065-.785.003-1.272-.074-1.999-.31a8.047 8.047 0 0 1-1.295-.603 6.55 6.55 0 0 1-2.588-3.032c-.952-2.332-.403-4.962 1.42-6.798.194-.194.453-.433.576-.532a6.821 6.821 0 0 1 3.329-1.425c.422-.062 1.298-.062 1.74 0 1.557.22 2.914.91 4.03 2.047a6.85 6.85 0 0 1 1.9 3.883c.048.341.048 1.313 0 1.662a7.084 7.084 0 0 1-2.393 4.395c-2.892 2.492-7.119 2.36-9.87-.312-1.208-1.172-1.943-2.582-2.205-4.233-.07-.444-.07-1.562 0-2.018a7.493 7.493 0 0 1 2.205-4.286 7.814 7.814 0 0 1 4.291-2.165c.507-.085 1.484-.105 2.014-.043a7.63 7.63 0 0 1 2.717.823c2.658 1.351 4.367 4.088 4.364 6.994 0 1.27-.276 2.4-.864 3.556a7.79 7.79 0 0 1-1.512 2.064c-1.374 1.377-3.07 2.194-5.015 2.422a9.962 9.962 0 0 1-2.106-.045 8.61 8.61 0 0 1-6.803-5.697 8.625 8.625 0 0 1-.344-1.388c-.084-.526-.104-1.568-.039-2.123.222-1.946 1.062-3.663 2.478-5.085a8.939 8.939 0 0 1 3.815-2.275 8.837 8.837 0 0 1 4.247-.17c2.345.482 4.448 1.924 5.786 3.968a8.922 8.922 0 0 1 1.4 3.956c.036.35.036 1.268 0 1.636-.305 3.123-2.245 5.894-5.14 7.341-2.674 1.338-5.769 1.318-8.46-.053-2.473-1.256-4.346-3.599-4.988-6.234a8.655 8.655 0 0 1-.259-2.183 9.019 9.019 0 0 1 .74-3.652c1.203-2.801 3.687-4.925 6.674-5.707a9.771 9.771 0 0 1 3.872-.212c2.934.42 5.55 2.135 7.169 4.7a10.04 10.04 0 0 1 1.374 3.61c.166.994.172 2.117.014 3.092-.597 3.736-3.314 6.898-6.994 8.143-2.267.766-4.697.723-6.983-.121-.68-.25-1.603-.73-2.239-1.16-3.286-2.22-5.091-6.046-4.646-9.861.56-4.818 4.48-8.771 9.377-9.461a11.417 11.417 0 0 1 3.055.003c2.466.355 4.713 1.51 6.476 3.323 1.774 1.824 2.841 4.094 3.103 6.6.053.515.045 1.692-.017 2.196a11.167 11.167 0 0 1-3.227 6.643c-1.957 1.962-4.412 3.122-7.18 3.398-.566.057-1.81.04-2.371-.028a11.776 11.776 0 0 1-7.02-3.483c-1.287-1.315-2.19-2.788-2.756-4.483a10.725 10.725 0 0 1-.572-3.835c.042-1.723.436-3.278 1.228-4.843a11.621 11.621 0 0 1 2.345-3.182c3.05-2.982 7.338-4.142 11.44-3.095 1.282.327 2.58.899 3.69 1.63 2.545 1.676 4.406 4.23 5.166 7.091.434 1.633.51 3.362.223 5.018-.423 2.424-1.577 4.66-3.345 6.473-3.816 3.903-9.608 4.944-14.505 2.602-3.877-1.853-6.625-5.548-7.205-9.681-.104-.758-.124-1.087-.107-1.949.017-1 .09-1.624.29-2.5.326-1.442.937-2.87 1.77-4.14 2.085-3.167 5.489-5.335 9.194-5.853a13.204 13.204 0 0 1 3.97.042c2.124.35 4.137 1.22 5.886 2.543.538.408.867.698 1.425 1.253a12.774 12.774 0 0 1 2.545 3.55 12.74 12.74 0 0 1 1.295 4.68c.051.583.023 1.918-.053 2.5-.386 2.977-1.684 5.62-3.807 7.758-2.757 2.774-6.507 4.258-10.317 4.083-1.997-.09-3.711-.53-5.491-1.408-1.464-.721-2.59-1.53-3.76-2.7-1.094-1.096-1.888-2.183-2.561-3.51-1.445-2.837-1.84-5.915-1.155-8.996.56-2.534 1.923-4.953 3.863-6.859 2.416-2.376 5.446-3.773 8.85-4.083.637-.056 2.07-.042 2.675.028 2.21.262 4.233.969 6.085 2.132 1.324.83 2.582 1.94 3.548 3.123 2.639 3.238 3.725 7.267 3.036 11.263-1.017 5.893-5.835 10.711-11.838 11.837-1.014.189-1.473.228-2.717.228-1.118-.003-1.414-.022-2.281-.157-4.069-.637-7.808-3.05-10.148-6.539a14.842 14.842 0 0 1-2.112-4.857 14.302 14.302 0 0 1 .324-7.58 15.549 15.549 0 0 1 2.061-4.097 15.612 15.612 0 0 1 8.228-5.868c2.019-.603 4.105-.766 6.279-.493 2.078.26 4.255 1.042 6.124 2.202a16.015 16.015 0 0 1 4.798 4.632c.997 1.487 1.788 3.303 2.169 4.961.287 1.259.383 2.11.38 3.407 0 .907-.026 1.279-.138 2.076-.552 3.855-2.616 7.397-5.787 9.923a15.982 15.982 0 0 1-8.546 3.424c-.506.047-2.154.047-2.66 0-3.729-.347-7.105-1.901-9.808-4.511-2.652-2.563-4.35-5.944-4.761-9.49-.15-1.264-.13-2.736.053-3.984a15.715 15.715 0 0 1 2.495-6.45c1.264-1.902 2.97-3.571 4.916-4.807 3.61-2.298 7.884-3.092 12.046-2.242 4.981 1.02 9.304 4.348 11.587 8.923.912 1.828 1.425 3.627 1.639 5.73.048.49.048 2.273 0 2.76-.22 2.188-.78 4.091-1.754 5.978-2.343 4.542-6.73 7.853-11.753 8.873-1.879.38-3.833.433-5.759.157-2.43-.352-4.84-1.278-6.955-2.675a17.487 17.487 0 0 1-4.944-4.956c-1.253-1.906-2.118-4.06-2.5-6.237-.195-1.1-.254-1.911-.234-3.167.014-.93.047-1.363.16-2.112.76-5.007 3.818-9.492 8.307-12.184a17.518 17.518 0 0 1 6.434-2.3c.952-.139 1.239-.155 2.506-.155.963 0 1.304.008 1.661.047 2.239.245 4.137.789 6.054 1.738a17.42 17.42 0 0 1 4.762 3.418 17.247 17.247 0 0 1 1.652 1.89c1.777 2.365 2.92 5.09 3.326 7.926.127.881.144 1.169.144 2.393-.004 1.248-.02 1.515-.155 2.45-.972 6.62-5.905 12.294-12.474 14.35a17.5 17.5 0 0 1-4.773.796l-.676.017-.009.25-.008.251.628-.017a18.285 18.285 0 0 0 7.951-2.047c3.202-1.644 5.922-4.237 7.693-7.335 1.273-2.23 2.016-4.578 2.275-7.194.062-.62.07-2.29.017-2.9a17.642 17.642 0 0 0-1.314-5.364c-1.906-4.537-5.643-8.163-10.275-9.974a18.156 18.156 0 0 0-4.902-1.149c-.448-.042-2.047-.079-2.408-.053Z" id="path119" style="fill:#fff;fill-opacity:1;stroke:none;stroke-width:.00281579px"/><g id="g11598" transform="matrix(.96852 0 0 .96852 -6.586 -4.426)"><g id="g15975" transform="matrix(.21855 0 0 .21855 28.801 -3.438)"><path id="path3020" style="fill:#14c30b;fill-opacity:1;stroke-width:8.32638px" d="M-66.192 143.359a94.488 94.488 0 0 0-.21 2.13 94.488 94.488 0 0 0 94.488 94.487 94.488 94.488 0 0 0 94.489-94.488 94.488 94.488 0 0 0-.077-2.13z"/><path id="path3020-8" style="fill:#d1d187;fill-opacity:1;stroke-width:7.29419px" d="M-54.505 143.359a82.775 82.775 0 0 0-.184 1.865A82.775 82.775 0 0 0 28.086 228a82.775 82.775 0 0 0 82.775-82.775 82.775 82.775 0 0 0-.067-1.865z"/><path id="path3020-4" style="fill:#cc361f;fill-opacity:1;stroke-width:7.65922px" d="M-47.908 143.359a76.052 76.052 0 0 0-.058.802 76.052 76.052 0 0 0 76.051 76.053 76.052 76.052 0 0 0 76.053-76.053 76.052 76.052 0 0 0-.02-.802z"/></g></g></svg>